HIERARCHY
ROOT Root
{
	OFFSET 0.0000 0.0000 0.0000
	CHANNELS 6 Xposition Yposition Zposition Zrotation Xrotation Yrotation
	JOINT Spine01
	{
		OFFSET 0.0000 -16.7008 118.8322
		CHANNELS 6 Xposition Yposition Zposition Zrotation Xrotation Yrotation
		JOINT Spine02
		{
			OFFSET 0.0000 11.8586 169.5859
			CHANNELS 6 Xposition Yposition Zposition Zrotation Xrotation Yrotation
			JOINT LeftShoulder
			{
				OFFSET 83.0000 21.5583 44.2746
				CHANNELS 6 Xposition Yposition Zposition Zrotation Xrotation Yrotation
				JOINT LeftArm
				{
					OFFSET 0.0000 -111.4369 141.3570
					CHANNELS 6 Xposition Yposition Zposition Zrotation Xrotation Yrotation
					JOINT LeftForeArm
					{
						OFFSET 0.0000 -172.4081 -79.8464
						CHANNELS 6 Xposition Yposition Zposition Zrotation Xrotation Yrotation
						JOINT LeftWrist
						{
							OFFSET 0.0000 -209.8784 7.1457
							CHANNELS 6 Xposition Yposition Zposition Zrotation Xrotation Yrotation
							JOINT LeftHand
							{
								OFFSET 0.0000 -64.9257 26.1658
								CHANNELS 6 Xposition Yposition Zposition Zrotation Xrotation Yrotation
								End Site
								{
									OFFSET 0.0000 -20.5704 56.3636
								}
							}
						}
					}
				}
			}
			JOINT RightShoulder
			{
				OFFSET -83.0000 21.5583 44.2746
				CHANNELS 6 Xposition Yposition Zposition Zrotation Xrotation Yrotation
				JOINT RightArm
				{
					OFFSET 0.0000 -111.4369 141.3570
					CHANNELS 6 Xposition Yposition Zposition Zrotation Xrotation Yrotation
					JOINT RightForeArm
					{
						OFFSET 0.0000 -172.4081 -79.8464
						CHANNELS 6 Xposition Yposition Zposition Zrotation Xrotation Yrotation
						JOINT RightWrist
						{
							OFFSET 0.0000 -209.8784 7.1457
							CHANNELS 6 Xposition Yposition Zposition Zrotation Xrotation Yrotation
							JOINT RightHand
							{
								OFFSET 0.0000 -64.9257 26.1658
								CHANNELS 6 Xposition Yposition Zposition Zrotation Xrotation Yrotation
								End Site
								{
									OFFSET 0.0000 -20.5704 56.3636
								}
							}
						}
					}
				}
			}
			JOINT Neck01
			{
				OFFSET 0.0000 4.1879 119.9269
				CHANNELS 6 Xposition Yposition Zposition Zrotation Xrotation Yrotation
				JOINT Neck02
				{
					OFFSET 0.0000 -14.3102 88.8550
					CHANNELS 6 Xposition Yposition Zposition Zrotation Xrotation Yrotation
					JOINT Neck03
					{
						OFFSET 0.0000 72.0997 53.8668
						CHANNELS 6 Xposition Yposition Zposition Zrotation Xrotation Yrotation
						JOINT Neck04
						{
							OFFSET 0.0000 88.9597 -13.6445
							CHANNELS 6 Xposition Yposition Zposition Zrotation Xrotation Yrotation
							JOINT Head
							{
								OFFSET 0.0000 19.3735 72.4546
								CHANNELS 6 Xposition Yposition Zposition Zrotation Xrotation Yrotation
								End Site
								{
									OFFSET 0.0000 -28.2512 167.6361
								}
								JOINT LeftEar
								{
									OFFSET 45.0000 62.4894 -9.7509
									CHANNELS 6 Xposition Yposition Zposition Zrotation Xrotation Yrotation
									End Site
									{
										OFFSET 23.1256 59.6428 28.4242
									}
								}
								JOINT RightEar
								{
									OFFSET -45.0000 62.4894 -9.7509
									CHANNELS 6 Xposition Yposition Zposition Zrotation Xrotation Yrotation
									End Site
									{
										OFFSET -23.1256 59.6428 28.4242
									}
								}
							}
						}
					}
				}
			}
		}
	}
	JOINT LeftLeg
	{
		OFFSET 75.0000 -65.3041 -110.1607
		CHANNELS 6 Xposition Yposition Zposition Zrotation Xrotation Yrotation
		JOINT LeftLowerLeg
		{
			OFFSET 0.0000 -209.4885 14.6489
			CHANNELS 6 Xposition Yposition Zposition Zrotation Xrotation Yrotation
			JOINT LeftAnkle
			{
				OFFSET 0.0000 -168.5298 -141.4133
				CHANNELS 6 Xposition Yposition Zposition Zrotation Xrotation Yrotation
				JOINT LeftFoot
				{
					OFFSET 0.0000 -96.5926 25.8819
					CHANNELS 6 Xposition Yposition Zposition Zrotation Xrotation Yrotation
					End Site
					{
						OFFSET 0.0000 -19.5341 56.7311
					}
				}
			}
		}
	}
	JOINT RightLeg
	{
		OFFSET -75.0000 -65.3041 -110.1607
		CHANNELS 6 Xposition Yposition Zposition Zrotation Xrotation Yrotation
		JOINT RightLowerLeg
		{
			OFFSET 0.0000 -209.4885 14.6489
			CHANNELS 6 Xposition Yposition Zposition Zrotation Xrotation Yrotation
			JOINT RightAnkle
			{
				OFFSET 0.0000 -168.5298 -141.4133
				CHANNELS 6 Xposition Yposition Zposition Zrotation Xrotation Yrotation
				JOINT RightFoot
				{
					OFFSET 0.0000 -96.5926 25.8819
					CHANNELS 6 Xposition Yposition Zposition Zrotation Xrotation Yrotation
					End Site
					{
						OFFSET 0.0000 -19.5341 56.7311
					}
				}
			}
		}
	}
	JOINT TailBase
	{
		OFFSET 0.0000 -22.9100 -124.3991
		CHANNELS 6 Xposition Yposition Zposition Zrotation Xrotation Yrotation
		JOINT Tail1
		{
			OFFSET 0.0000 0.0000 -67.0000
			CHANNELS 6 Xposition Yposition Zposition Zrotation Xrotation Yrotation
			JOINT Tail2
			{
				OFFSET 0.0000 0.0000 -67.0000
				CHANNELS 6 Xposition Yposition Zposition Zrotation Xrotation Yrotation
				JOINT Tail3
				{
					OFFSET 0.0000 0.0000 -67.0000
					CHANNELS 6 Xposition Yposition Zposition Zrotation Xrotation Yrotation
					JOINT Tail4
					{
						OFFSET 0.0000 0.0000 -67.0000
						CHANNELS 6 Xposition Yposition Zposition Zrotation Xrotation Yrotation
						JOINT Tail5
						{
							OFFSET 0.0000 0.0000 -67.0000
							CHANNELS 6 Xposition Yposition Zposition Zrotation Xrotation Yrotation
							JOINT Tail6
							{
								OFFSET 0.0000 0.0000 -67.0000
								CHANNELS 6 Xposition Yposition Zposition Zrotation Xrotation Yrotation
								End Site
								{
									OFFSET 0.0000 0.0000 -67.0000
								}
							}
						}
					}
				}
			}
		}
	}
}
MOTION
Frames: 5
Frame Time: 0.008342
44.2591 582.7230 -92.1270 1.0627 -3.2008 92.8895 0.0000 -16.7008 118.8322 1.9732 5.1233 2.1913 0.0000 11.8586 169.5859 0.6973 3.7480 4.8062 53.4479 19.7191 24.8289 18.0498 -9.8108 10.0527 -0.0000 -111.4369 141.3570 -18.8288 27.1384 -16.5401 0.0000 -172.4081 -79.8464 0.2001 -19.5805 -5.4795 0.0000 -209.8784 7.1457 -6.5468 54.3291 -0.4003 0.0000 -64.9257 26.1658 -86.4297 81.2764 89.5920 -77.3941 13.1443 63.3798 -4.8879 -5.5903 -6.2166 0.0000 -111.4369 141.3570 6.0729 -10.4444 7.3765 0.0000 -172.4081 -79.8464 -0.5324 -10.9188 15.4447 -0.0000 -209.8784 7.1457 -2.9379 -6.5111 -0.1002 0.0000 -64.9257 26.1658 16.1024 19.1443 -11.0948 0.0000 4.1879 119.9269 -3.7569 -9.7138 -12.0347 0.0000 -14.3102 88.8550 7.4145 10.2868 15.0899 -0.0000 72.0997 53.8668 -11.2255 -4.2171 0.6922 0.0000 88.9597 -13.6445 -1.5333 10.0411 -18.5661 -0.0000 19.3735 72.4546 33.3639 -15.6727 37.8024 47.8428 67.8548 -2.7978 -11.8619 0.0683 2.7243 -33.2862 75.9429 -2.7569 3.7980 11.2554 8.1356 75.0000 -65.3041 -110.1607 5.4532 -26.0924 14.2508 -0.0000 -209.4885 14.6489 -0.0000 -14.3437 -0.0000 0.0000 -168.5298 -141.4133 -0.0000 17.5263 0.0000 0.0000 -96.5926 25.8819 -1.0970 21.2203 0.7493 -75.0000 -65.3041 -110.1607 1.6122 18.6751 -6.6278 0.0000 -209.4885 14.6489 0.0000 -11.3782 0.0000 0.0000 -168.5298 -141.4133 0.0000 37.0218 -0.0000 -0.0000 -96.5926 25.8819 -14.9275 0.9537 5.5204 0.0000 -22.9100 -124.3991 0.7326 -10.9907 2.2282 -0.0000 0.0000 -67.0000 0.2358 -9.0115 1.5051 0.0000 0.0000 -67.0000 -0.3900 6.4229 3.4819 0.0000 -0.0000 -67.0000 0.0820 6.3611 -0.7398 0.0000 0.0000 -67.0000 -0.7069 9.0658 4.4776 0.0000 0.0000 -67.0000 -6.9669 20.8497 18.9489 -0.0000 0.0000 -67.0000 -0.5799 15.5064 2.1682 
78.2574 578.4880 -96.4083 1.1769 -4.1322 93.1841 0.0000 -16.7008 118.8322 2.4124 5.5658 1.4524 -0.0000 11.8586 169.5859 0.9381 4.3886 3.8543 54.3131 20.2181 23.5025 22.2564 -11.6637 8.3383 0.0000 -111.4369 141.3570 -23.6942 26.3761 -16.6217 0.0000 -172.4081 -79.8464 -0.0290 -27.1303 0.7437 0.0000 -209.8784 7.1457 -7.0230 67.6184 -0.6824 0.0000 -64.9257 26.1658 -81.4005 85.0661 83.1540 -76.5284 16.3561 59.2711 -6.2366 -6.1397 -6.1663 -0.0000 -111.4369 141.3570 9.0231 -5.7786 8.2257 -0.0000 -172.4081 -79.8464 -0.5142 -12.7248 14.7873 0.0000 -209.8784 7.1457 -5.3736 -9.1386 -0.1840 0.0000 -64.9257 26.1658 14.8845 19.3853 -10.2714 0.0000 4.1879 119.9269 -2.3143 -11.6701 -11.5803 0.0000 -14.3102 88.8550 5.6845 10.4501 15.5063 0.0000 72.0997 53.8668 -10.7487 -2.9839 0.8562 -0.0000 88.9597 -13.6445 -1.3364 9.3603 -15.4281 -0.0000 19.3735 72.4546 32.9883 -17.3311 36.4658 47.9668 67.5456 -3.2075 -11.8026 0.0414 2.7178 -32.9728 75.9398 -2.9379 3.6876 11.3454 8.1837 75.0000 -65.3041 -110.1607 6.0701 -24.6762 13.8242 -0.0000 -209.4885 14.6489 0.0000 -11.2358 0.0000 -0.0000 -168.5298 -141.4133 -0.0000 10.6352 -0.0000 0.0000 -96.5926 25.8819 1.3542 20.3825 -0.9089 -75.0000 -65.3041 -110.1607 1.7017 19.5786 -6.9977 0.0000 -209.4885 14.6489 0.0000 -10.1188 0.0000 0.0000 -168.5298 -141.4133 0.0000 39.7636 -0.0000 0.0000 -96.5926 25.8819 -16.7299 10.9995 9.1040 -0.0000 -22.9100 -124.3991 0.5105 -10.3633 1.6042 0.0000 0.0000 -67.0000 0.4258 -7.9310 3.0828 0.0000 -0.0000 -67.0000 -0.4874 6.3106 4.4259 -0.0000 0.0000 -67.0000 -0.0269 6.3518 0.2430 -0.0000 -0.0000 -67.0000 -0.9323 8.2590 6.4633 -0.0000 0.0000 -67.0000 -8.6888 18.0712 26.2276 -0.0000 0.0000 -67.0000 -0.8128 14.6135 3.2185 
110.8880 573.1960 -101.3400 1.0976 -5.4604 93.4511 0.0000 -16.7008 118.8322 3.1331 5.3389 0.5372 0.0000 11.8586 169.5859 1.1354 4.9863 3.2014 54.8727 20.6116 22.3313 25.9656 -13.3520 7.0954 0.0000 -111.4369 141.3570 -27.1960 25.3007 -15.9082 -0.0000 -172.4081 -79.8464 -0.1929 -35.2358 4.5204 0.0000 -209.8784 7.1457 -6.9287 75.0924 -1.0477 -0.0000 -64.9257 26.1658 -30.3811 86.9684 30.9056 -75.6572 17.9733 56.2240 -6.8730 -6.4308 -6.4174 -0.0000 -111.4369 141.3570 11.0667 -1.5010 9.0329 0.0000 -172.4081 -79.8464 -0.4985 -13.3766 14.2803 0.0000 -209.8784 7.1457 -7.0028 -11.4650 -0.2410 -0.0000 -64.9257 26.1658 12.4030 17.6230 -8.1866 0.0000 4.1879 119.9269 -1.0674 -13.1135 -10.9583 0.0000 -14.3102 88.8550 4.1915 10.8071 15.8233 -0.0000 72.0997 53.8668 -10.1110 -1.6784 0.9885 0.0000 88.9597 -13.6445 -1.1155 7.8503 -12.2209 0.0000 19.3735 72.4546 32.1139 -17.3366 34.2696 47.6897 66.6281 -4.3117 -12.2315 -0.5089 2.9777 -33.9087 75.4463 -3.3481 2.6725 11.3510 8.3985 75.0000 -65.3041 -110.1607 6.8949 -21.1126 13.5274 -0.0000 -209.4885 14.6489 -0.0000 -8.6528 -0.0000 -0.0000 -168.5298 -141.4133 -0.0000 -0.7728 -0.0000 -0.0000 -96.5926 25.8819 3.3814 21.0811 -2.3049 -75.0000 -65.3041 -110.1607 1.5239 18.5444 -8.5563 0.0000 -209.4885 14.6489 0.0000 -6.9908 0.0000 0.0000 -168.5298 -141.4133 0.0000 40.5810 -0.0000 0.0000 -96.5926 25.8819 -15.6309 25.1109 11.7407 -0.0000 -22.9100 -124.3991 0.4242 -10.2549 1.3409 -0.0000 0.0000 -67.0000 0.5150 -7.6253 3.8750 -0.0000 0.0000 -67.0000 -0.6163 6.4433 5.4758 -0.0000 0.0000 -67.0000 -0.2427 7.4438 1.8726 -0.0000 0.0000 -67.0000 -1.1005 7.8995 7.9570 0.0000 -0.0000 -67.0000 -9.5503 15.7876 31.7320 -0.0000 -0.0000 -67.0000 -1.0648 14.4221 4.2678 
141.6390 567.4970 -106.9840 0.8873 -7.1638 93.8855 -0.0000 -16.7008 118.8322 3.7750 4.4590 -0.7384 0.0000 11.8586 169.5859 1.3997 5.3072 2.9354 54.9075 20.2755 20.8330 29.3665 -14.9730 6.3101 0.0000 -111.4369 141.3570 -29.4564 23.8743 -14.7871 0.0000 -172.4081 -79.8464 -0.3438 -42.8122 7.1955 0.0000 -209.8784 7.1457 -6.9175 77.2778 -1.2545 0.0000 -64.9257 26.1658 -6.5375 75.0337 6.9326 -75.0676 18.3568 55.0351 -6.0388 -5.7477 -7.2903 0.0000 -111.4369 141.3570 11.4824 2.0006 10.3023 -0.0000 -172.4081 -79.8464 -0.5034 -12.9944 14.4517 -0.0000 -209.8784 7.1457 -7.4580 -14.4272 -0.2592 0.0000 -64.9257 26.1658 10.0315 15.8954 -6.3293 0.0000 4.1879 119.9269 0.1657 -13.1527 -10.2942 0.0000 -14.3102 88.8550 2.9047 11.6270 15.8813 -0.0000 72.0997 53.8668 -9.3548 -0.9009 0.9972 0.0000 88.9597 -13.6445 -1.0798 5.8611 -9.9857 0.0000 19.3735 72.4546 31.7764 -16.9140 33.5706 47.7911 66.0429 -4.9713 -13.0192 -0.1053 3.0801 -34.1606 75.3676 -4.1603 2.7549 12.1007 8.6429 75.0000 -65.3041 -110.1607 8.0238 -16.8007 13.1212 -0.0000 -209.4885 14.6489 0.0000 -7.2688 0.0000 0.0000 -168.5298 -141.4133 -0.0000 -11.7915 -0.0000 0.0000 -96.5926 25.8819 4.8118 23.2444 -3.4280 -75.0000 -65.3041 -110.1607 1.7037 15.7669 -9.2321 0.0000 -209.4885 14.6489 0.0000 -1.9846 -0.0000 0.0000 -168.5298 -141.4133 -0.0000 38.6439 0.0000 0.0000 -96.5926 25.8819 -9.8676 37.3445 8.7375 -0.0000 -22.9100 -124.3991 0.5115 -10.7939 1.5718 0.0000 -0.0000 -67.0000 0.4512 -7.7935 3.3238 -0.0000 0.0000 -67.0000 -0.7455 6.5168 6.5405 0.0000 0.0000 -67.0000 -0.7133 8.9837 4.5588 0.0000 0.0000 -67.0000 -1.4110 8.5617 9.3945 -0.0000 0.0000 -67.0000 -10.1534 14.6566 35.2907 -0.0000 0.0000 -67.0000 -1.3936 14.6466 5.4955 
170.3240 562.8980 -111.9930 0.5280 -8.4461 94.5351 0.0000 -16.7008 118.8322 3.7653 3.1941 -1.9593 0.0000 11.8586 169.5859 1.5970 5.3458 2.4945 53.6865 20.0557 20.0534 31.1171 -15.5645 6.0882 0.0000 -111.4369 141.3570 -29.4465 21.3442 -14.0679 0.0000 -172.4081 -79.8464 -0.4855 -48.2041 9.1858 0.0000 -209.8784 7.1457 -5.6231 75.2320 -0.8604 0.0000 -64.9257 26.1658 -8.4205 50.4032 8.4681 -75.1725 18.1229 55.6981 -4.3270 -4.2027 -8.4547 0.0000 -111.4369 141.3570 10.8949 4.6450 11.8198 -0.0000 -172.4081 -79.8464 -0.5191 -12.0806 14.9732 0.0000 -209.8784 7.1457 -7.0115 -17.0465 -0.2465 -0.0000 -64.9257 26.1658 8.2313 14.2130 -4.9659 0.0000 4.1879 119.9269 1.4552 -12.4817 -9.8058 0.0000 -14.3102 88.8550 1.7728 12.9381 15.7298 -0.0000 72.0997 53.8668 -8.7933 -1.1738 0.8690 0.0000 88.9597 -13.6445 -1.0257 4.4285 -8.2986 -0.0000 19.3735 72.4546 31.4547 -16.2319 33.1686 47.6127 65.3134 -5.2686 -13.4185 -0.6869 3.3352 -34.9850 75.3269 -4.4403 2.7198 12.7015 8.8583 75.0000 -65.3041 -110.1607 8.8991 -13.3671 12.4317 0.0000 -209.4885 14.6489 0.0000 -6.3770 0.0000 0.0000 -168.5298 -141.4133 -0.0000 -19.3776 -0.0000 0.0000 -96.5926 25.8819 5.2004 25.5117 -3.8643 -75.0000 -65.3041 -110.1607 1.9238 11.3470 -8.9771 0.0000 -209.4885 14.6489 0.0000 5.2233 0.0000 0.0000 -168.5298 -141.4133 -0.0000 31.7043 -0.0000 0.0000 -96.5926 25.8819 -2.0990 42.9790 1.9601 -0.0000 -22.9100 -124.3991 0.6593 -11.8746 1.9199 -0.0000 0.0000 -67.0000 0.2758 -8.6239 1.8388 0.0000 -0.0000 -67.0000 -0.9583 7.1237 7.6821 -0.0000 0.0000 -67.0000 -1.3938 10.8001 7.3982 0.0000 0.0000 -67.0000 -1.9608 10.1997 10.9422 0.0000 0.0000 -67.0000 -11.2292 14.7836 37.8848 -0.0000 0.0000 -67.0000 -1.9902 16.3050 7.0558 
